
<svg width="118" height="109" viewBox="0 0 118 109" fill="none" xmlns="http://www.w3.org/2000/svg">
<path d="M40.9346 31.5965C41.8553 30.8759 42.7486 30.1167 43.7013 29.4399C47.7082 26.5968 52.0863 24.4733 56.7443 22.9517C62.0759 21.2103 67.5642 20.4383 73.1759 20.6207C79.365 20.8218 85.3091 22.152 91.0012 24.6006C95.9342 26.7228 100.395 29.593 104.394 33.1805C104.664 33.4227 105.035 33.6059 104.902 34.1218C104.848 34.333 105.029 34.6064 105.118 34.9022C105.373 34.7747 105.583 34.6696 105.866 34.5273C106.857 35.5862 107.858 36.6532 108.911 37.7796C108.28 38.0475 107.757 38.3012 107.211 38.4793C107.07 38.5258 106.807 38.3843 106.677 38.2526C105.38 36.9391 104.158 35.5433 102.794 34.3057C101.624 33.2445 100.321 32.3231 99.0338 31.3996C92.9558 27.0366 86.2116 24.2868 78.8287 23.1288C73.0307 22.2204 67.2654 22.4173 61.535 23.6903C58.3895 24.3889 55.3785 25.4618 52.4152 26.716C50.4452 27.5498 48.6073 28.6145 46.8222 29.7547C45.0344 30.8971 43.2952 32.1424 41.6708 33.5063C40.0343 34.8815 38.5131 36.408 37.0344 37.9569C35.0458 40.0422 33.3837 42.3885 31.853 44.8317C30.836 46.4546 29.9596 48.1497 29.1842 49.8936C28.9237 50.4806 28.6387 50.8203 27.9725 50.7158C27.8679 50.6991 27.7546 50.7338 27.6169 50.7482C27.45 51.2943 27.8576 51.6601 28.0013 52.0963C28.042 52.2208 28.1009 52.3741 28.062 52.4835C27.7145 53.4887 27.3467 54.4865 26.9652 55.544C26.4771 55.3248 26.1829 55.6427 26.1008 56.0294C26.0613 56.2123 26.3978 56.4763 26.6266 56.7885C25.805 59.7676 25.1718 62.9379 25.0273 66.1794C24.9354 68.2464 24.9908 70.3218 24.9943 72.3923C24.9951 72.7304 24.8323 72.9241 24.671 73.199C24.3129 73.8117 23.6769 73.764 23.1459 74.2019C23.0794 73.2296 22.9982 72.349 22.9635 71.4658C22.7032 64.786 23.7519 58.3203 26.1193 52.0718C27.8257 47.5663 30.1534 43.4103 33.0799 39.5903C33.2358 39.386 33.413 39.1801 33.6234 39.0382C34.037 38.7601 34.5519 38.583 34.4419 37.9187C34.4311 37.8561 34.5431 37.7694 34.6033 37.6987C36.452 35.542 38.4701 33.5577 40.6573 31.7448C40.7421 31.6746 40.8477 31.6273 40.9428 31.5698C40.9355 31.6218 40.9223 31.6738 40.9226 31.7262C40.9216 31.905 40.9253 32.0831 40.9269 32.262C41.0979 32.237 41.3213 32.2692 41.4283 32.1737C41.5828 32.0349 41.6519 31.8015 41.7579 31.6087C41.6157 31.5408 41.4743 31.4261 41.3303 31.42C41.1993 31.4158 41.0648 31.5327 40.9312 31.5943L40.9346 31.5965ZM36.8635 37.4796C37.122 36.9741 37.3879 36.4715 37.6179 35.9536C37.6319 35.9232 37.3495 35.6717 37.2156 35.6809C36.8388 35.7064 36.1309 36.5665 36.107 36.9553C36.0796 37.408 36.3169 37.5821 36.8635 37.4796ZM44.2356 30.2015C44.9382 30.3601 45.5026 30.1645 45.7188 29.6256C45.7978 29.4296 45.7579 29.0971 45.633 28.9351C45.5481 28.827 45.1906 28.8407 45.0042 28.9186C44.4733 29.1415 44.2739 29.611 44.2356 30.2015ZM23.5828 70.7618C24.2063 70.7513 24.561 70.4725 24.4543 70.0229C24.4125 69.844 24.1308 69.6142 23.943 69.5998C23.6356 69.5764 23.4564 70.1826 23.5828 70.7618ZM54.8175 25.177C54.8994 24.9077 54.9943 24.7318 54.9831 24.5619C54.9788 24.5001 54.6618 24.3708 54.5903 24.4207C54.449 24.5186 54.3797 24.7202 54.281 24.8782C54.4264 24.9594 54.5718 25.0406 54.8175 25.177Z" fill="#06C270"/>
<path d="M75.9349 118.17C76.1051 117.873 76.2486 117.674 76.3368 117.451C76.3993 117.294 76.3846 117.107 76.4048 116.934C76.1934 116.912 75.9276 116.8 75.7818 116.888C75.5064 117.055 75.2422 117.303 75.0763 117.578C74.7351 118.145 74.2906 118.33 73.6267 118.351C67.2237 118.56 61.0137 117.571 54.999 115.368C51.4763 114.078 48.1395 112.407 45.0065 110.334C44.9456 110.294 44.8903 110.244 44.8649 110.225C45.2497 109.709 45.6273 109.206 45.9799 108.732C47.6382 109.646 49.3506 110.678 51.1378 111.557C59.1644 115.501 67.6382 117.023 76.5335 116.16C77.1084 116.104 77.6801 116.003 78.2551 115.953C78.5996 115.923 78.9575 115.697 79.2451 116.217C79.3931 116.485 79.7588 116.255 79.9658 115.982C80.0891 115.818 80.2827 115.64 80.4716 115.602C84.0601 114.899 87.5255 113.816 90.8725 112.343C91.0737 112.254 91.3484 112.295 91.5826 112.324C91.98 112.373 92.2771 112.32 92.3454 111.846C92.3602 111.746 92.4488 111.621 92.5384 111.571C93.4839 111.044 94.4368 110.528 95.3895 110.015C95.4837 109.964 95.6105 109.907 95.7021 109.93C96.0764 110.028 96.1917 109.831 96.3736 109.539C96.5472 109.261 96.902 109.086 97.1959 108.896C101.925 105.86 105.959 102.077 109.308 97.5647C113.973 91.2793 116.872 84.2503 118.078 76.516C118.218 75.6121 118.311 74.7017 118.431 73.7477C118.894 73.7995 119.195 73.5566 119.145 73.1016C119.122 72.9022 118.815 72.7347 118.617 72.5338C118.566 70.3882 118.507 68.1323 118.47 65.8768C118.469 65.7407 118.613 65.5402 118.741 65.4758C119.225 65.2363 119.731 65.0426 120.343 64.7825C120.416 65.8425 120.484 66.83 120.555 67.8556C120.239 67.8885 119.97 67.9169 119.649 67.9495C119.692 68.5492 119.848 69.0355 120.327 69.4052C120.454 69.5039 120.556 69.7244 120.555 69.8896C120.534 74.574 119.836 79.1587 118.483 83.6387C116.697 89.5536 113.897 94.9447 110.08 99.7991C106.929 103.805 103.277 107.286 98.9879 110.042C96.8409 111.421 94.5559 112.584 92.331 113.84C92.1538 113.94 91.9562 114.003 91.7734 114.08C91.2285 113.426 91.1158 113.459 90.6296 114.175C90.4249 114.477 90.1224 114.79 89.794 114.918C85.4278 116.636 80.9127 117.756 76.2313 118.168C76.1631 118.174 76.0939 118.169 75.9319 118.169L75.9349 118.17ZM115.681 87.9617C116.346 87.9251 116.664 87.6691 116.547 87.2008C116.502 87.0196 116.216 86.7941 116.024 86.7779C115.731 86.7544 115.548 87.4113 115.681 87.9617ZM117.463 81.1604C117.378 81.6105 117.295 81.8792 117.298 82.1479C117.299 82.2231 117.67 82.3714 117.679 82.3589C117.852 82.0962 118.008 81.8195 118.125 81.5292C118.134 81.5071 117.813 81.3538 117.463 81.1615L117.463 81.1604ZM72.5555 116.914C72.1507 117.083 71.8135 117.274 71.8956 117.754C71.9025 117.797 72.2991 117.852 72.4507 117.775C72.8174 117.588 72.9744 117.3 72.5555 116.914ZM102.261 105.917L102.414 106.16C102.667 106.083 102.922 106.005 103.176 105.928L102.924 105.143C102.859 105.136 102.794 105.131 102.729 105.125C102.573 105.389 102.416 105.652 102.26 105.916L102.261 105.917Z" fill="#06C270"/>
<path d="M50.4249 96.6108L49.6634 94.8168C49.8567 94.7237 50.0311 94.6289 50.2129 94.5518C68.3863 86.8364 86.562 79.1237 104.73 71.3959C105.25 71.1753 105.428 71.2954 105.617 71.7808C106.082 72.9783 106.107 72.9753 104.924 73.4775C89.7799 79.9056 74.6365 86.3311 59.4924 92.7582C56.6905 93.9475 53.8896 95.1389 51.0881 96.3293C50.8856 96.4152 50.6832 96.5012 50.4249 96.6108ZM69.5194 88.4287C69.9937 87.564 69.9517 87.2984 69.2923 86.8367C68.6822 87.456 68.7564 88.0501 69.5194 88.4287ZM59.2699 92.3749C59.5397 92.0454 59.9939 91.8257 59.695 91.3454C59.641 91.2584 59.1662 91.2889 59.0517 91.4157C58.7689 91.7288 58.8232 92.0808 59.2699 92.3749ZM63.9686 89.7916C64.0319 89.7855 64.0947 89.7784 64.158 89.7723C64.1636 89.5989 64.2408 89.3413 64.1576 89.2716C64.0323 89.1659 63.7974 89.1899 63.609 89.1599C63.5887 89.2125 63.5684 89.2651 63.5495 89.3183C63.6897 89.4763 63.8284 89.6336 63.9686 89.7916Z" fill="#06C270"/>
<path d="M93.8711 44.1408L38.2132 67.7662L37.4732 66.0229C37.6515 65.9375 37.8414 65.8361 38.0387 65.7524C51.2616 60.142 64.4864 54.5333 77.7089 48.9219C82.6431 46.8275 87.5793 44.7346 92.5043 42.6184C93.0096 42.4015 93.2373 42.4869 93.3941 42.997C93.5076 43.3678 93.6913 43.7174 93.8711 44.1408ZM77.9492 49.8901C78.0885 49.572 78.1788 49.3626 78.2706 49.1538C78.1107 49.1044 77.8833 48.9652 77.8026 49.0251C77.6198 49.1601 77.5078 49.3933 77.3677 49.586C77.5231 49.6678 77.6786 49.7497 77.9486 49.8916L77.9492 49.8901Z" fill="#06C270"/>
<path d="M112.503 79.6835L112.825 80.4433C112.965 80.4169 113.104 80.3909 113.271 80.3606C113.269 80.4346 113.281 80.5089 113.263 80.5737C112.51 83.4383 111.462 86.191 110.135 88.835C108.788 91.5165 107.194 94.0429 105.314 96.3839C105.01 96.7622 104.704 97.1388 104.38 97.4997C104.114 97.7962 103.939 98.1917 103.374 98.1127C103.174 98.085 102.805 98.4456 102.698 98.7048C101.853 100.777 99.9897 101.874 98.4121 103.239C97.9716 103.62 97.4148 103.863 96.9374 104.206C96.25 104.7 95.6164 105.276 94.9065 105.735C92.2157 107.476 89.3626 108.901 86.3328 109.952C85.0924 110.382 83.8407 110.791 82.5698 111.121C81.2524 111.461 79.9154 111.744 78.5726 111.958C77.2485 112.171 75.9081 112.314 74.5696 112.4C73.2315 112.488 71.8843 112.529 70.5432 112.486C64.9955 112.311 59.6697 111.119 54.5781 108.884C51.5018 107.534 48.6111 105.866 45.9406 103.823C45.6932 103.633 45.4835 103.337 45.369 103.048C45.2389 102.718 45.0563 102.595 44.7238 102.536C44.4337 102.484 44.1048 102.385 43.8936 102.194C42.691 101.111 41.5181 99.9933 40.3236 98.8767C41.0955 98.2766 41.193 98.2853 41.7649 98.8599C48.9022 106.032 57.4921 110.199 67.5374 111.282C75.1194 112.099 82.3999 110.864 89.3094 107.672C97.2984 103.982 103.53 98.3044 108.002 90.7042C108.243 90.2943 108.591 89.9425 108.796 89.5182C109.27 88.5336 109.738 87.541 110.115 86.5171C110.892 84.4161 111.607 82.2932 112.346 80.1789C112.388 80.0586 112.422 79.9353 112.5 79.6823L112.503 79.6835Z" fill="#06C270"/>
<path d="M88.5118 99.344C87.2912 99.2317 86.2131 99.1591 85.1439 99.0216C84.5919 98.9505 84.2076 99.0562 83.861 99.5295C83.2124 100.414 82.4965 101.25 81.7196 102.217C81.6018 101.744 81.5037 101.384 81.4245 101.019C81.2412 100.18 81.086 99.3343 80.8776 98.5015C80.8349 98.3291 80.634 98.1346 80.4611 98.0662C79.4 97.6517 78.3266 97.2717 77.2572 96.8777C77.176 96.8474 77.0998 96.8028 76.9278 96.7194C77.9809 96.1038 78.9424 95.5051 79.94 94.9742C80.3966 94.7315 80.5647 94.4353 80.5754 93.9262C80.5973 92.8088 80.6856 91.6926 80.7533 90.4617C81.4798 91.0904 82.141 91.6514 82.7894 92.2253C83.9064 93.2136 83.9015 93.2108 85.3183 92.7914C86.1515 92.5452 86.9926 92.3238 87.9565 92.0552C87.4458 93.1931 87.004 94.2175 86.5259 95.2256C86.3189 95.6628 86.2658 96.003 86.6023 96.4368C87.1611 97.1587 87.6291 97.9508 88.1319 98.716C88.2423 98.8842 88.3412 99.0597 88.5124 99.3425L88.5118 99.344ZM85.6453 95.4748C85.7878 95.1614 85.8845 94.9468 85.9823 94.7319C85.7999 94.6871 85.5609 94.5491 85.4504 94.6192C85.2767 94.7271 85.1905 94.9751 85.0672 95.1642C85.2265 95.2493 85.3847 95.3349 85.6468 95.4753L85.6453 95.4748Z" fill="#06C270"/>
<path d="M58.2159 37.4232C59.171 38.237 60.0635 38.9809 60.9364 39.7478C61.2119 39.9888 61.4444 40.0856 61.8301 39.9659C62.9639 39.6153 64.1175 39.3284 65.4028 38.9784C64.9423 40.0278 64.5924 40.99 64.1072 41.8777C63.7405 42.5477 63.7925 43.035 64.2495 43.6291C64.8611 44.4238 65.3729 45.2963 66.003 46.2493C65.0907 46.1711 64.2819 46.1931 63.5207 46.0141C62.2739 45.7223 61.4047 46.0473 60.7408 47.166C60.3456 47.8322 59.768 48.3901 59.2704 48.996C59.2607 49.0074 59.2365 49.0079 59.145 49.0394C58.9343 48.0977 58.6457 47.1708 58.5364 46.2239C58.4338 45.339 58.0369 44.8978 57.1912 44.6777C56.3633 44.4623 55.571 44.1095 54.7647 43.8128C54.6692 43.7776 54.5835 43.7163 54.4107 43.6223C55.3105 43.0937 56.113 42.5515 56.9769 42.1335C57.7468 41.7614 58.1149 41.29 58.0683 40.3874C58.0193 39.4247 58.1541 38.4524 58.2134 37.423L58.2159 37.4232ZM61.7004 42.6476C61.9817 42.4085 62.2551 42.1764 62.434 42.0235C62.6656 42.1842 62.8725 42.4189 62.9755 42.38C63.1784 42.3037 63.3805 42.1018 63.4784 41.9015C63.5578 41.7382 63.5166 41.4918 63.4656 41.2997C63.4256 41.1481 63.2887 40.9118 63.1932 40.9108C63.0478 40.9102 62.8012 41.0588 62.7751 41.1811C62.6947 41.5634 62.447 41.5916 62.138 41.6507C61.5745 41.7566 61.452 42.0567 61.6993 42.6481L61.7004 42.6476Z" fill="#06C270"/>
<path d="M103.119 40.1949C102.266 40.6619 102.271 40.6577 101.654 40.0339C101.273 39.6492 100.886 39.2687 100.488 38.9025C100.115 38.5586 99.6677 38.2624 100.05 37.4735C99.1291 37.9413 98.7613 37.3191 98.2797 36.9542C97.178 36.1196 96.0724 35.2902 95.0507 34.5205C95.0038 34.2117 94.9651 33.9569 94.926 33.7011C94.675 33.7502 94.4244 33.8004 94.0776 33.8682C92.8251 33.1952 91.4645 32.4142 90.0618 31.7208C85.6463 29.5365 80.9794 28.1761 76.0816 27.7139C73.9708 27.5152 71.8373 27.5645 69.7133 27.5156C69.349 27.5077 68.9907 27.5742 68.9613 27.0394C68.957 26.9606 68.7893 26.8901 68.6968 26.8157C68.6314 26.9143 68.5347 27.0055 68.51 27.1137C68.4809 27.2348 68.5168 27.3711 68.529 27.5809C67.8491 27.5274 67.1757 27.966 66.6333 27.5413C66.2312 27.6827 65.918 27.8352 65.5879 27.902C63.9133 28.2427 62.2345 28.5619 60.564 28.8862C60.552 28.6139 60.5396 28.3088 60.5262 27.9957C75.3286 23.6879 92.5931 28.5669 103.119 40.1949Z" fill="#06C270"/>
<path d="M72.1306 33.0794C73.0089 33.8415 73.7772 34.4854 74.5164 35.1612C74.7832 35.4048 75.022 35.4647 75.3653 35.3629C76.3574 35.0689 77.3595 34.8072 78.4668 34.5033C78.1104 35.318 77.838 36.0897 77.4451 36.7928C77.0368 37.5256 76.9972 38.113 77.5832 38.7927C78.1012 39.3926 78.4737 40.1178 78.9846 40.8991C78.0355 40.8206 77.1825 40.8101 76.3533 40.6636C75.5824 40.5278 75.0726 40.7198 74.6325 41.3806C74.1712 42.0748 73.593 42.6917 72.9827 43.4455C72.8387 42.8335 72.6349 42.3275 72.6146 41.8144C72.5555 40.3221 71.8636 39.465 70.3661 39.2173C69.8467 39.1312 69.3582 38.8535 68.7318 38.616C69.6752 38.0665 70.5107 37.5616 71.3651 37.0927C71.7743 36.8676 71.9951 36.6151 71.9915 36.1011C71.9846 35.1511 72.0741 34.2017 72.1316 33.0789L72.1306 33.0794ZM74.7983 39.4446C74.3794 39.802 74.217 40.3328 74.4906 40.5062C74.6126 40.5839 74.9421 40.5503 75.0163 40.4492C75.299 40.0641 75.1096 39.7328 74.7983 39.4446Z" fill="#06C270"/>
<path d="M74.2178 98.9743C73.759 100.022 73.3825 100.956 72.9378 101.856C72.7466 102.241 72.8199 102.506 73.0364 102.821C73.5931 103.635 74.1318 104.462 74.7442 105.385C73.8559 105.309 73.0555 105.316 72.2907 105.154C71.3665 104.959 70.7623 105.213 70.2574 106.011C69.835 106.679 69.2663 107.256 68.7097 107.938C68.4886 106.911 68.2724 105.968 68.0913 105.019C68.0621 104.864 68.2295 104.678 68.2238 104.509C68.2142 104.248 68.1335 103.989 68.0831 103.73C67.8853 103.795 67.6892 103.868 67.489 103.925C67.3334 103.969 67.1497 104.059 67.0166 104.015C66.205 103.746 65.4047 103.443 64.4745 103.108C65.2128 102.67 65.8267 102.217 66.5099 101.922C67.4468 101.519 67.8521 100.908 67.7737 99.8759C67.7207 99.1764 67.8364 98.4639 67.8768 97.7577C67.8773 97.7416 67.8939 97.726 67.9565 97.6151C68.5932 98.3308 69.5174 98.6813 69.9341 99.6369C70.0183 99.8296 70.6515 99.9139 70.988 99.842C72.0413 99.6148 73.074 99.29 74.2188 98.9739L74.2178 98.9743Z" fill="#06C270"/>
<path d="M91.263 91.7169C92.2927 91.1124 93.2009 90.6035 94.0788 90.0464C94.274 89.9232 94.4436 89.6448 94.482 89.4135C94.5615 88.9374 94.5007 88.4379 94.5793 87.9623C94.6577 87.4892 94.8371 87.0331 95.0016 86.4697C95.7699 87.1307 96.4293 87.7305 97.129 88.2789C97.3085 88.4202 97.6354 88.4952 97.857 88.4427C98.8699 88.2008 99.8703 87.9033 101.012 87.5874C100.52 88.7014 100.083 89.6979 99.6335 90.6891C99.6021 90.7586 99.4722 90.8089 99.382 90.8203C98.7014 90.9088 98.5529 91.2541 98.9657 91.862C99.2067 91.6656 99.4452 91.4691 99.7159 91.2479C100.317 92.1593 100.892 93.0283 101.531 93.9959C100.66 93.9223 99.8596 93.9333 99.0969 93.7708C98.1707 93.5738 97.5604 93.8366 97.0507 94.6235C96.6288 95.2754 96.0806 95.8452 95.5895 96.452C95.5294 96.4482 95.4682 96.4448 95.4081 96.441C95.3477 95.7789 95.2923 95.117 95.2223 94.4552C95.2085 94.3279 95.1503 94.2023 95.0942 94.0844C95.0341 93.9572 94.8967 93.8433 94.8903 93.7189C94.8607 93.1207 94.5309 92.8636 93.9801 92.6979C93.1083 92.4363 92.2642 92.0823 91.2635 91.7154L91.263 91.7169Z" fill="#06C270"/>
<path d="M30.8806 59.6627C30.7242 59.4237 30.5873 59.213 30.4488 59.0018C30.381 59.2383 30.3318 59.4815 30.2389 59.7079C30.1644 59.8886 30.0364 60.0467 29.8051 60.1681C29.9301 59.641 30.0456 59.1119 30.182 58.5885C31.2566 54.4734 32.9043 50.6024 35.1133 46.9708C35.2869 46.6846 35.456 46.4943 35.8298 46.4786C36.2706 46.46 36.682 46.3147 36.8037 45.7194C36.6017 45.6488 36.387 45.5738 36.0763 45.465C41.9215 36.8936 49.8193 31.1931 59.7364 28.2247C59.4573 28.7965 59.2853 29.3765 58.5245 29.6237C52.2705 31.648 46.8274 35.0225 42.1609 39.6435C38.7613 43.0095 36.0364 46.8649 33.9482 51.1745C33.8307 51.4174 33.5907 51.6048 33.3919 51.8028C33.1347 52.0586 32.8715 52.2888 33.1326 52.7058C33.1886 52.7944 33.1337 52.9753 33.0898 53.099C32.5518 54.6322 32.0858 56.1971 31.4278 57.6773C31.1353 58.3354 31.2747 59.063 30.8835 59.6639L30.8806 59.6627Z" fill="#06C270"/>
<path d="M45.3512 44.4704C46.2094 45.2167 46.9656 45.8291 47.6637 46.5028C48.0042 46.8311 48.3093 46.8347 48.7154 46.7112C49.6555 46.427 50.6056 46.1777 51.684 45.8775C51.2023 46.9689 50.7693 47.948 50.338 48.9253C49.4303 48.6166 49.1802 48.7081 48.7168 49.5755C48.4815 50.015 48.2998 50.4831 48.0906 50.947C49.1442 51.1082 49.7799 50.7443 50.3969 49.5954C50.6522 49.9672 50.8845 50.3047 51.0813 50.5901C51.0042 50.8281 50.9471 51.0038 50.8901 51.1795C51.0398 51.1991 51.1917 51.2066 51.3374 51.2425C51.4316 51.2661 51.5457 51.3081 51.5981 51.3799C51.7832 51.6348 51.9456 51.9055 52.1937 52.2889C51.2888 52.2137 50.4721 52.2256 49.6938 52.0611C48.7975 51.8711 48.2324 52.1598 47.7425 52.8931C47.3004 53.5548 46.7495 54.1442 46.1806 54.8462C45.931 53.7268 45.7183 52.6943 45.4565 51.6754C45.4037 51.4706 45.1966 51.2298 45.0018 51.15C44.1382 50.7958 43.2526 50.4961 42.3754 50.1733C42.2613 50.1313 42.1527 50.0736 41.9682 49.9894C42.8876 49.4525 43.7243 48.9361 44.5886 48.4703C44.9955 48.2511 45.1793 47.9947 45.1866 47.5152C45.2008 46.5318 45.2889 45.55 45.3511 44.4729L45.3512 44.4704Z" fill="#06C270"/>
<path d="M44.8662 107.886C44.5061 108.433 44.162 108.956 43.7931 109.514C40.4333 107.163 37.3841 104.415 34.6187 101.174C35.2335 100.913 35.783 100.666 36.3458 100.455C36.4416 100.419 36.6376 100.504 36.7175 100.595C39.1419 103.359 41.9018 105.748 44.8724 107.9C44.8864 107.91 44.8926 107.931 44.8637 107.886L44.8662 107.886Z" fill="#06C270"/>
<path d="M114.731 67.1814C114.689 69.0134 114.664 70.7078 114.605 72.4002C114.58 73.1084 114.504 73.8153 114.41 74.5186C114.375 74.7789 114.216 75.0197 114.129 75.2741C114.077 75.4245 113.985 75.6101 114.03 75.7364C114.293 76.4703 114.124 77.06 113.636 77.663C113.232 78.1633 112.97 78.779 112.565 79.4823C112.777 78.3588 112.973 77.3874 113.143 76.4113C113.617 73.6808 113.813 70.9261 113.678 68.1587C113.643 67.4235 114.147 67.4453 114.732 67.181L114.731 67.1814Z" fill="#06C270"/>
<path d="M29.6411 60.9192C30.2175 61.5933 30.3133 60.877 30.6936 60.6325C30.5974 61.1412 30.515 61.5733 30.4339 61.9998C30.2281 62.0493 30.0392 62.0953 29.6971 62.177C30.5044 62.703 30.1993 63.3602 30.1323 63.9836C30.0562 64.6891 30.0971 65.4317 29.882 66.0911C29.6426 66.8255 29.8568 67.5226 29.8025 68.2335C29.7468 68.9755 29.7827 69.7263 29.7971 70.4727C29.8158 71.4043 29.8249 71.4029 28.8523 71.7168C28.6491 68.0927 28.9204 64.5323 29.6397 60.9186L29.6411 60.9192Z" fill="#06C270"/>
<path d="M23.4479 83.0387L22.9378 81.8369L28.1128 79.6402L28.6229 80.842L26.7664 81.6301L28.8552 86.551L27.3962 87.1702L25.3075 82.2493L23.4479 83.0387ZM31.4344 85.4561L28.8355 79.3334L31.3647 78.2598C31.8231 78.0652 32.2539 77.98 32.6569 78.0042C33.0611 78.0255 33.4191 78.1511 33.7307 78.381C34.0415 78.609 34.2857 78.9322 34.4634 79.3508C34.6436 79.7753 34.7041 80.1754 34.6448 80.551C34.5846 80.9247 34.4171 81.2616 34.1423 81.5617C33.8666 81.8598 33.4956 82.1079 33.0292 82.3059L31.4298 82.9848L30.9349 81.8188L32.2593 81.2567C32.4825 81.1619 32.6566 81.0539 32.7815 80.9327C32.9076 80.8086 32.9841 80.6702 33.0111 80.5177C33.0372 80.3631 33.0101 80.1911 32.9297 80.0018C32.8494 79.8124 32.7441 79.6725 32.6139 79.5819C32.4829 79.4893 32.3285 79.4443 32.1508 79.4468C31.9723 79.4473 31.7724 79.4946 31.5512 79.5885L30.8217 79.8981L32.9143 84.828L31.4344 85.4561ZM33.6937 81.1947L36.4061 83.3458L34.7918 84.031L32.1092 81.8673L33.6937 81.1947ZM38.1137 75.395L39.5906 74.7681L41.267 78.7174C41.4607 79.1738 41.5209 79.6175 41.4474 80.0486C41.3732 80.4776 41.181 80.8673 40.8711 81.2176C40.5603 81.566 40.1477 81.8493 39.6335 82.0675C39.1133 82.2884 38.62 82.3896 38.1535 82.3712C37.6862 82.3508 37.2734 82.2179 36.9152 81.9724C36.5561 81.725 36.2797 81.373 36.086 80.9166L34.4096 76.9673L35.8895 76.3392L37.5113 80.1599C37.6009 80.3712 37.7267 80.54 37.8886 80.6666C38.0525 80.7922 38.2381 80.8664 38.4452 80.889C38.6524 80.9116 38.8666 80.8759 39.0879 80.782C39.3091 80.6881 39.4825 80.5592 39.6082 80.3953C39.7359 80.2306 39.8114 80.0456 39.8349 79.8404C39.8583 79.6352 39.8252 79.427 39.7355 79.2157L38.1137 75.395ZM44.6068 74.8053C44.4938 74.5945 44.3328 74.4617 44.1237 74.407C43.9158 74.3494 43.6673 74.3819 43.3783 74.5046C43.187 74.5858 43.0381 74.6784 42.9317 74.7824C42.8253 74.8864 42.7589 74.9957 42.7323 75.1105C42.7049 75.2233 42.7139 75.3359 42.7593 75.4484C42.7942 75.5417 42.8464 75.6148 42.9159 75.6677C42.9873 75.7197 43.0734 75.7561 43.1739 75.7769C43.2756 75.7949 43.3908 75.8001 43.5193 75.7926C43.6478 75.7851 43.7882 75.7666 43.9404 75.7373L44.5173 75.6336C44.8482 75.5707 45.1525 75.5451 45.4302 75.5565C45.7099 75.5672 45.9607 75.6148 46.1824 75.6995C46.4062 75.7833 46.6008 75.9065 46.7662 76.0691C46.9317 76.2317 47.0675 76.4352 47.1735 76.6795C47.3357 77.067 47.3789 77.4403 47.3031 77.7994C47.2274 78.1585 47.0395 78.4888 46.7393 78.7902C46.4412 79.0908 46.037 79.3494 45.5268 79.566C45.0146 79.7834 44.5355 79.8962 44.0897 79.9043C43.6439 79.9124 43.249 79.8049 42.9049 79.5817C42.5608 79.3584 42.2842 79.0089 42.0752 78.5331L43.4923 77.9316C43.588 78.1238 43.7106 78.2658 43.8601 78.3576C44.0096 78.4494 44.1805 78.4945 44.3727 78.4929C44.5669 78.4904 44.7726 78.4431 44.9898 78.3509C45.1891 78.2663 45.3471 78.1675 45.4638 78.0544C45.5825 77.9405 45.6594 77.8197 45.6945 77.6919C45.7296 77.5641 45.7219 77.438 45.6715 77.3135C45.6204 77.1988 45.5427 77.1154 45.4382 77.0632C45.3329 77.0091 45.1949 76.9831 45.024 76.985C44.8543 76.9842 44.6468 77.0052 44.4016 77.0481L43.6983 77.1702C43.1166 77.2737 42.6157 77.2546 42.1957 77.113C41.7749 76.9694 41.4669 76.665 41.2717 76.1997C41.109 75.8219 41.0698 75.4469 41.1541 75.0748C41.2384 74.7026 41.4281 74.3598 41.7231 74.0464C42.0182 73.733 42.3979 73.4777 42.8623 73.2806C43.3367 73.0792 43.7825 72.9853 44.1998 72.9987C44.6183 73.0092 44.9855 73.1179 45.3015 73.3249C45.6175 73.5318 45.8583 73.8248 46.0239 74.2037L44.6068 74.8053ZM46.3856 73.3022L45.8755 72.1004L51.0505 69.9037L51.5606 71.1055L49.7041 71.8936L51.7929 76.8145L50.3339 77.4338L48.2452 72.5129L46.3856 73.3022ZM54.3722 75.7196L51.7732 69.5969L56.0424 67.7848L56.5525 68.9866L53.7632 70.1706L54.2962 71.4262L56.8673 70.3349L57.3787 71.5397L54.8076 72.631L55.3419 73.8897L58.1312 72.7057L58.6413 73.9075L54.3722 75.7196ZM61.8312 72.5535L59.5681 73.5141L56.9691 67.3914L59.2293 66.432C59.8531 66.1672 60.4423 66.0618 60.9968 66.1157C61.5524 66.1669 62.0501 66.3696 62.4898 66.7239C62.9287 67.0763 63.2831 67.5704 63.553 68.2061C63.8237 68.8439 63.9338 69.444 63.8832 70.0065C63.8346 70.5681 63.6361 71.0675 63.2878 71.5047C62.9386 71.9399 62.453 72.2895 61.8312 72.5535ZM60.5124 71.6243L61.2389 71.316C61.5817 71.1704 61.8471 70.9895 62.0353 70.7733C62.2245 70.5542 62.3241 70.2873 62.334 69.9726C62.345 69.655 62.2571 69.276 62.0701 68.8356C61.8831 68.3951 61.6725 68.0706 61.4381 67.8619C61.2028 67.6513 60.9401 67.5394 60.6499 67.5261C60.3608 67.51 60.0408 67.5765 59.6901 67.7254L58.9845 68.0248L60.5124 71.6243ZM69.491 69.4114C69.0605 69.5942 68.6563 69.6752 68.2782 69.6546C67.9021 69.6331 67.5754 69.5283 67.298 69.3403C67.0198 69.1503 66.813 68.8958 66.6776 68.5769C66.5778 68.3417 66.5356 68.115 66.5512 67.8967C66.5679 67.6756 66.6258 67.4546 66.7249 67.2337C66.8252 67.01 66.9536 66.7779 67.1103 66.5374L68.0468 65.1696C68.1534 65.0161 68.215 64.8759 68.2317 64.7489C68.2503 64.621 68.238 64.5062 68.1949 64.4046C68.1484 64.295 68.0632 64.2135 67.9394 64.1602C67.8177 64.106 67.6745 64.1151 67.5099 64.1873C67.4043 64.2321 67.3219 64.293 67.2628 64.3698C67.2037 64.4466 67.1678 64.5312 67.1553 64.6236C67.1447 64.7151 67.1593 64.8077 67.1991 64.9014C67.2507 65.0229 67.3385 65.1327 67.4624 65.2307C67.5863 65.3286 67.7375 65.4244 67.916 65.518C68.0965 65.6107 68.2963 65.7129 68.5154 65.8245L72.8479 67.8772L71.3591 68.5091L67.7739 66.8872C67.5684 66.791 67.3479 66.6788 67.1124 66.5506C66.8768 66.4224 66.6576 66.2661 66.4547 66.0818C66.2509 65.8954 66.0915 65.6667 65.9764 65.3957C65.847 65.0907 65.8016 64.7842 65.8402 64.4762C65.8788 64.1681 65.9967 63.8864 66.1941 63.6309C66.3926 63.3726 66.6652 63.1698 67.012 63.0226C67.3468 62.8805 67.665 62.8266 67.9666 62.8609C68.2681 62.8952 68.5328 62.998 68.7608 63.1694C68.9888 63.3408 69.1603 63.562 69.2754 63.833C69.3972 64.12 69.4386 64.4142 69.3994 64.7154C69.3594 65.0146 69.2492 65.3119 69.0688 65.6072L68.1922 67.0414C68.0992 67.1937 68.0382 67.3408 68.009 67.4825C67.9789 67.6223 67.991 67.756 68.0451 67.8835C68.1009 68.0151 68.1805 68.1166 68.2837 68.188C68.3889 68.2586 68.5112 68.2973 68.6505 68.304C68.7898 68.3107 68.9371 68.2811 69.0926 68.2151C69.2999 68.1271 69.4864 67.9903 69.6523 67.8047C69.8172 67.617 69.9474 67.3971 70.0426 67.145C70.137 66.8909 70.1836 66.6183 70.1824 66.3271C70.1802 66.034 70.1162 65.739 69.9901 65.442L71.168 64.942C71.3237 65.3087 71.4295 65.666 71.4854 66.0139C71.5405 66.3598 71.5432 66.6903 71.4935 67.0055C71.4449 67.3178 71.3417 67.6038 71.1839 67.8637C71.1291 67.934 71.0754 68.0015 71.0228 68.0661C70.9703 68.1308 70.9166 68.1983 70.8618 68.2686C70.6985 68.5378 70.495 68.7677 70.2513 68.9582C70.0095 69.1478 69.7561 69.2989 69.491 69.4114ZM75.1065 66.9184L72.5076 60.7957L75.0368 59.7221C75.4952 59.5276 75.9259 59.4423 76.329 59.4665C76.7332 59.4878 77.0911 59.6134 77.4028 59.8433C77.7136 60.0713 77.9578 60.3945 78.1355 60.8131C78.3157 61.2376 78.3761 61.6377 78.3168 62.0133C78.2567 62.387 78.0892 62.7239 77.8144 63.024C77.5387 63.3221 77.1677 63.5702 76.7013 63.7682L75.1019 64.4471L74.607 63.2811L75.9313 62.719C76.1546 62.6242 76.3287 62.5162 76.4536 62.395C76.5797 62.2709 76.6562 62.1325 76.6832 61.98C76.7093 61.8254 76.6822 61.6534 76.6018 61.4641C76.5215 61.2748 76.4162 61.1348 76.286 61.0442C76.155 60.9516 76.0006 60.9066 75.8229 60.9091C75.6444 60.9096 75.4445 60.9569 75.2232 61.0508L74.4938 61.3604L76.5864 66.2903L75.1065 66.9184ZM77.3657 62.657L80.0782 64.8081L78.4638 65.4933L75.7812 63.3296L77.3657 62.657ZM80.6806 64.5523L78.0817 58.4296L82.3508 56.6175L82.861 57.8193L80.0717 59.0033L80.6047 60.2589L83.1757 59.1676L83.6871 60.3724L81.1161 61.4637L81.6503 62.7224L84.4396 61.5384L84.9498 62.7402L80.6806 64.5523ZM85.8766 62.3468L83.2776 56.2241L84.7575 55.5959L86.8463 60.5168L89.3934 59.4356L89.9035 60.6375L85.8766 62.3468ZM89.5506 53.5614L92.1495 59.6841L90.6696 60.3123L88.0707 54.1896L89.5506 53.5614ZM94.4029 58.7276L92.8124 59.4027L92.2793 52.4031L94.2495 51.5668L98.9142 56.8127L97.3237 57.4878L93.9416 53.5181L93.8938 53.5384L94.4029 58.7276ZM93.1678 56.4081L96.4922 54.9969L96.9694 56.121L93.645 57.5322L93.1678 56.4081ZM99.5734 56.5328L96.9745 50.4101L99.5276 49.3264C99.986 49.1318 100.397 49.0337 100.761 49.0322C101.127 49.0297 101.437 49.1121 101.692 49.2793C101.948 49.4457 102.141 49.6823 102.272 49.9892C102.371 50.2224 102.41 50.4514 102.39 50.6763C102.37 50.8991 102.299 51.1067 102.178 51.299C102.058 51.4913 101.895 51.6592 101.69 51.8027L101.715 51.8625C101.968 51.7695 102.224 51.7394 102.485 51.7722C102.748 51.8041 102.989 51.9016 103.209 52.0647C103.428 52.2258 103.6 52.4538 103.725 52.7488C103.865 53.0776 103.906 53.4071 103.849 53.7373C103.79 54.0655 103.634 54.3716 103.381 54.6556C103.127 54.9376 102.773 55.1746 102.321 55.3666L99.5734 56.5328ZM100.547 54.7118L101.462 54.3235C101.783 54.1873 101.993 54.0263 102.093 53.8404C102.195 53.6537 102.2 53.4517 102.107 53.2344C102.04 53.077 101.946 52.9571 101.824 52.8748C101.701 52.7905 101.559 52.7462 101.397 52.742C101.235 52.7357 101.059 52.7728 100.869 52.8532L99.9276 53.2529L100.547 54.7118ZM99.5228 52.2992L100.342 51.9515C100.503 51.883 100.635 51.7952 100.738 51.6881C100.841 51.5809 100.906 51.4618 100.932 51.3305C100.961 51.1984 100.945 51.0606 100.884 50.9171C100.797 50.7118 100.655 50.5813 100.46 50.5254C100.265 50.4696 100.043 50.4941 99.7961 50.599L98.953 50.9569L99.5228 52.2992ZM105.164 54.1598L102.565 48.0371L104.045 47.4089L106.134 52.3298L108.681 51.2486L109.191 52.4504L105.164 54.1598ZM109.957 52.1253L107.358 46.0025L111.627 44.1904L112.137 45.3922L109.348 46.5762L109.881 47.8318L112.452 46.7405L112.964 47.9453L110.392 49.0367L110.927 50.2953L113.716 49.1113L114.226 50.3131L109.957 52.1253ZM60.6779 79.9335C60.5649 79.7227 60.4039 79.5899 60.1948 79.5352C59.9869 79.4776 59.7384 79.5101 59.4494 79.6328C59.2581 79.714 59.1092 79.8066 59.0028 79.9106C58.8964 80.0146 58.8299 80.1239 58.8034 80.2387C58.776 80.3515 58.785 80.4641 58.8304 80.5765C58.8653 80.6699 58.9175 80.743 58.987 80.7959C59.0584 80.8478 59.1444 80.8843 59.245 80.9051C59.3467 80.9231 59.4619 80.9283 59.5904 80.9208C59.7189 80.9133 59.8593 80.8948 60.0115 80.8655L60.5884 80.7617C60.9193 80.6989 61.2236 80.6733 61.5013 80.6847C61.781 80.6954 62.0318 80.743 62.2535 80.8277C62.4773 80.9114 62.6719 81.0347 62.8373 81.1973C63.0028 81.3599 63.1386 81.5634 63.2446 81.8077C63.4067 82.1952 63.4499 82.5685 63.3742 82.9276C63.2985 83.2867 63.1105 83.617 62.8104 83.9184C62.5123 84.219 62.1081 84.4776 61.5979 84.6942C61.0856 84.9116 60.6066 85.0244 60.1608 85.0325C59.715 85.0406 59.32 84.9331 58.976 84.7098C58.6319 84.4866 58.3553 84.1371 58.1463 83.6613L59.5634 83.0598C59.6591 83.252 59.7817 83.394 59.9312 83.4858C60.0807 83.5776 60.2516 83.6227 60.4438 83.6211C60.6379 83.6186 60.8437 83.5713 61.0609 83.4791C61.2602 83.3945 61.4182 83.2956 61.5349 83.1826C61.6535 83.0687 61.7304 82.9479 61.7656 82.8201C61.8007 82.6923 61.793 82.5661 61.7426 82.4417C61.6915 82.327 61.6138 82.2435 61.5093 82.1914C61.404 82.1373 61.2659 82.1113 61.0951 82.1132C60.9253 82.1124 60.7179 82.1334 60.4726 82.1763L59.7694 82.2984C59.1877 82.4019 58.6868 82.3828 58.2668 82.2412C57.8459 82.0976 57.538 81.7932 57.3428 81.3279C57.1801 80.9501 57.1409 80.5751 57.2252 80.2029C57.3095 79.8308 57.4992 79.488 57.7942 79.1746C58.0893 78.8612 58.469 78.6059 58.9334 78.4088C59.4077 78.2074 59.8536 78.1135 60.2709 78.1268C60.6894 78.1374 61.0566 78.2461 61.3726 78.4531C61.6886 78.66 61.9294 78.953 62.0949 79.3319L60.6779 79.9335ZM64.7458 83.2662L62.1469 77.1435L66.416 75.3314L66.9262 76.5332L64.1369 77.7172L64.6699 78.9728L67.2409 77.8815L67.7523 79.0863L65.1813 80.1776L65.7155 81.4363L68.5048 80.2523L69.015 81.4541L64.7458 83.2662ZM69.9417 81.0607L67.3428 74.938L68.8226 74.3098L70.9114 79.2307L73.4586 78.1495L73.9687 79.3513L69.9417 81.0607ZM74.7348 79.0262L72.1359 72.9035L73.6157 72.2753L75.7045 77.1962L78.2517 76.115L78.7618 77.3168L74.7348 79.0262ZM79.5279 76.9916L76.929 70.8689L81.1981 69.0568L81.7082 70.2586L78.9189 71.4426L79.4519 72.6982L82.023 71.6069L82.5344 72.8117L79.9633 73.903L80.4976 75.1616L83.2869 73.9777L83.797 75.1795L79.5279 76.9916ZM84.7238 74.7861L82.1249 68.6634L84.6541 67.5898C85.1125 67.3952 85.5432 67.31 85.9463 67.3341C86.3505 67.3554 86.7084 67.4811 87.0201 67.711C87.3309 67.939 87.5751 68.2622 87.7528 68.6808C87.933 69.1053 87.9934 69.5054 87.9341 69.881C87.874 70.2547 87.7065 70.5916 87.4317 70.8917C87.156 71.1898 86.785 71.4379 86.3186 71.6358L84.7192 72.3147L84.2242 71.1488L85.5486 70.5866C85.7719 70.4919 85.9459 70.3839 86.0709 70.2626C86.197 70.1385 86.2735 70.0002 86.3005 69.8476C86.3266 69.6931 86.2995 69.5211 86.2191 69.3318C86.1387 69.1424 86.0335 69.0025 85.9033 68.9119C85.7722 68.8193 85.6179 68.7743 85.4402 68.7768C85.2616 68.7773 85.0618 68.8245 84.8405 68.9184L84.1111 69.2281L86.2037 74.1579L84.7238 74.7861ZM86.983 70.5247L89.6955 72.6757L88.0811 73.361L85.3985 71.1972L86.983 70.5247Z" fill="#06C270"/>
</svg>
