<svg
  width="24"
  height="24"
  viewBox="0 0 24 24"
  fill="none"
  xmlns="http://www.w3.org/2000/svg"
>
  <g clip-path="url(#clip0_3509_120)">
    <path
      opacity="0.2"
      d="M12 21C16.9706 21 21 16.9706 21 12C21 7.02944 16.9706 3 12 3C7.02944 3 3 7.02944 3 12C3 16.9706 7.02944 21 12 21Z"
      fill="#12A150"
    ></path>
    <path
      d="M12 21C16.9706 21 21 16.9706 21 12C21 7.02944 16.9706 3 12 3C7.02944 3 3 7.02944 3 12C3 16.9706 7.02944 21 12 21Z"
      stroke="#12A150"
      stroke-width="1.5"
      stroke-linecap="round"
      stroke-linejoin="round"
    ></path>
    <path
      d="M12.375 16.5V7.5L10.125 9"
      stroke="#12A150"
      stroke-width="1.5"
      stroke-linecap="round"
      stroke-linejoin="round"
    ></path>
  </g>
  <defs>
    <clipPath id="clip0_3509_120">
      <rect width="24" height="24" fill="white"></rect>
    </clipPath>
  </defs>
</svg>
