<svg
  width="24"
  height="24"
  viewBox="0 0 24 24"
  fill="none"
  xmlns="http://www.w3.org/2000/svg"
>
  <g clip-path="url(#clip0_3509_129)">
    <path
      opacity="0.2"
      d="M12 21C16.9706 21 21 16.9706 21 12C21 7.02944 16.9706 3 12 3C7.02944 3 3 7.02944 3 12C3 16.9706 7.02944 21 12 21Z"
      fill="#12A150"
    ></path>
    <path
      d="M14 15H10L13.5975 10.8026C13.7709 10.601 13.8924 10.369 13.9538 10.1225C14.0151 9.87594 14.0148 9.62071 13.9529 9.37428C13.891 9.12785 13.7689 8.89605 13.5951 8.69477C13.4212 8.49349 13.1996 8.32749 12.9456 8.20815C12.6915 8.0888 12.411 8.01894 12.1232 8.00335C11.8354 7.98775 11.5472 8.02679 11.2782 8.1178C11.0093 8.2088 10.766 8.34961 10.5651 8.53058C10.3642 8.71155 10.2104 8.9284 10.1142 9.16626"
      stroke="#12A150"
      stroke-width="1.5"
      stroke-linecap="round"
      stroke-linejoin="round"
    ></path>
    <path
      d="M12 21C16.9706 21 21 16.9706 21 12C21 7.02944 16.9706 3 12 3C7.02944 3 3 7.02944 3 12C3 16.9706 7.02944 21 12 21Z"
      stroke="#12A150"
      stroke-width="1.5"
      stroke-linecap="round"
      stroke-linejoin="round"
    ></path>
  </g>
  <defs>
    <clipPath id="clip0_3509_129">
      <rect width="24" height="24" fill="white"></rect>
    </clipPath>
  </defs>
</svg>
