
<svg width="24" height="24" viewBox="0 0 24 24" fill="none" xmlns="http://www.w3.org/2000/svg">
<g clip-path="url(#clip0_3697_423)">
<path opacity="0.2" d="M12 21C16.9706 21 21 16.9706 21 12C21 7.02944 16.9706 3 12 3C7.02944 3 3 7.02944 3 12C3 16.9706 7.02944 21 12 21Z" fill="#12A150"/>
<path d="M9.75 8.875H14.25L11.625 11.7917C12.0578 11.7917 12.4838 11.875 12.8652 12.0341C13.2466 12.1932 13.5715 12.4231 13.811 12.7035C14.0505 12.9838 14.1972 13.3059 14.238 13.641C14.2787 13.9761 14.2123 14.3139 14.0447 14.6242C13.877 14.9345 13.6133 15.2078 13.2771 15.4197C12.9408 15.6316 12.5424 15.7755 12.1173 15.8387C11.6922 15.9019 11.2537 15.8823 10.8406 15.7818C10.4276 15.6813 10.0529 15.5029 9.75 15.2625" stroke="#12A150" stroke-width="1.5" stroke-linecap="round" stroke-linejoin="round"/>
<path d="M12 21C16.9706 21 21 16.9706 21 12C21 7.02944 16.9706 3 12 3C7.02944 3 3 7.02944 3 12C3 16.9706 7.02944 21 12 21Z" stroke="#12A150" stroke-width="1.5" stroke-linecap="round" stroke-linejoin="round"/>
</g>
<defs>
<clipPath id="clip0_3697_423">
<rect width="24" height="24" fill="white"/>
</clipPath>
</defs>
</svg>
