<svg
  width="24"
  height="25"
  viewBox="0 0 24 25"
  fill="none"
  xmlns="http://www.w3.org/2000/svg"
>
  <g clip-path="url(#clip0_3509_9667)">
    <path
      d="M19.5 4.25H4.5C4.10218 4.25 3.72064 4.40804 3.43934 4.68934C3.15804 4.97064 3 5.35218 3 5.75V11C3 15.9425 5.3925 18.9378 7.39969 20.5803C9.56156 22.3484 11.7122 22.9484 11.8059 22.9738C11.9348 23.0088 12.0708 23.0088 12.1997 22.9738C12.2934 22.9484 14.4413 22.3484 16.6059 20.5803C18.6075 18.9378 21 15.9425 21 11V5.75C21 5.35218 20.842 4.97064 20.5607 4.68934C20.2794 4.40804 19.8978 4.25 19.5 4.25ZM16.2825 10.7806L11.0325 16.0306C10.9628 16.1004 10.8801 16.1557 10.7891 16.1934C10.698 16.2312 10.6004 16.2506 10.5019 16.2506C10.4033 16.2506 10.3057 16.2312 10.2147 16.1934C10.1236 16.1557 10.0409 16.1004 9.97125 16.0306L7.72125 13.7806C7.58052 13.6399 7.50146 13.449 7.50146 13.25C7.50146 13.051 7.58052 12.8601 7.72125 12.7194C7.86198 12.5786 8.05285 12.4996 8.25187 12.4996C8.4509 12.4996 8.64177 12.5786 8.7825 12.7194L10.5 14.4397L15.2194 9.71937C15.2891 9.64969 15.3718 9.59442 15.4628 9.5567C15.5539 9.51899 15.6515 9.49958 15.75 9.49958C15.8485 9.49958 15.9461 9.51899 16.0372 9.5567C16.1282 9.59442 16.2109 9.64969 16.2806 9.71937C16.3503 9.78906 16.4056 9.87178 16.4433 9.96283C16.481 10.0539 16.5004 10.1515 16.5004 10.25C16.5004 10.3485 16.481 10.4461 16.4433 10.5372C16.4056 10.6282 16.3503 10.7109 16.2806 10.7806H16.2825Z"
      fill="#12A150"
    ></path>
  </g>
  <defs>
    <clipPath id="clip0_3509_9667">
      <rect
        width="24"
        height="24"
        fill="white"
        transform="translate(0 0.5)"
      ></rect>
    </clipPath>
  </defs>
</svg>
